<svg id="Layer_1" data-name="Layer 1" xmlns="http://www.w3.org/2000/svg" viewBox="0 0 532.7 550">
  <defs>
    <style>
      .cls-1 {
        fill: #262223;
      }
    </style>
  </defs>
  <title>add</title>
  <path class="cls-1" d="M516.5,596.9a263.8,263.8,0,0,1-68,0c0-27.9-.2-55.7.1-83.5.1-5.4-.4-7.1-6.6-7-36.6.4-73.2.1-109.8.4-7.9.1-11.4-1.5-10.9-10.7,1-16.7.5-33.5.1-50.3-.2-6.2,2.1-7.6,7.8-7.5,36.7.2,73.3-.1,110,.3,7.1.1,9.6-1,9.4-9-.5-36.4-.1-72.8-.4-109.1-.1-6.9,1.7-9.3,9-9.1,17.6.5,35.2.3,52.9.1,4.7-.1,6.4,1.3,6.4,6.2-.2,29.5-.1,59-.1,88.5,0,8.8.4,17.6-.1,26.4-.3,5.3,1.8,6,6.3,6,25.3-.1,50.6,0,75.9.1,1.8,1.8,1.8,4,1.8,6.3,0,18.2-.2,36.3.1,54.5.1,5.1-1.9,6.1-6.5,6.2s-10.7-1.4-15.9,1c-18.1-.1-36.3,0-54.4-.3-5-.1-7.5.5-7.5,6.7C516.5,540.8,516.4,568.8,516.5,596.9Z" transform="translate(-67.6 -49.1)"/>
  <path class="cls-1" d="M322,49.2H505.9c3.6,0,7.4-1.1,10.6,1.7q.1,85.5.2,171c0,20.7.1,21-19.5,21.6-13.6.4-27.2-.7-40.8-.1-7.5.3-8.2-3-8.2-9,.2-27.6.1-55.1.1-82.7,0-9.7-.3-19.3.1-29,.3-5.6-1.5-7.1-7.1-7.1-37.2.2-74.4,0-111.6.3-6.4.1-8.7-1.2-8.5-8.2C322,88.4,321.8,68.8,322,49.2Z" transform="translate(-67.6 -49.1)"/>
  <path class="cls-1" d="M91.8,506.4c-4.3-2.4-9-1.4-13.3-1-8.2.8-11-1.4-10.9-10.5.5-61,.2-122,.2-183,17.9-.2,35.7-.3,53.6-.7,6.6-.2,4.6,4.4,4.6,7.6.1,36.9.3,73.8-.1,110.8-.1,7.1,1.7,8.9,8.8,8.8,38.9-.4,77.8,0,116.7-.3,8.2-.1,11.4,1.3,10.8,10.6-1.1,16.7-.6,33.4-.2,50.1.2,6.2-1.9,7.5-7.7,7.4-47.6-.2-95.3-.1-142.9-.1Z" transform="translate(-67.6 -49.1)"/>
  <path class="cls-1" d="M67.9,49.5l187.1-.3c4.4,0,6.1,1.2,5.9,5.7s-1.3,6.8,1.2,9.8c-.1,14.4-.7,28.9-.1,43.3.3,7.4-2.7,8.1-8.8,8.1-39.5-.2-79,.1-118.5-.3-7.1-.1-8.9,1.9-8.9,8.9.4,36.7,0,73.3.4,110,.1,7.8-2.3,9.4-9.8,8.9-11-.8-22.1-.1-33.2,0a6.9,6.9,0,0,0-2.2-1.1C67.8,241,67.8,241,67.8,227.1Q67.9,138.3,67.9,49.5Z" transform="translate(-67.6 -49.1)"/>
</svg>
