<svg id="Layer_1" data-name="Layer 1" xmlns="http://www.w3.org/2000/svg" viewBox="0 0 550 341.6">
  <defs>
    <style>
      .cls-1 {
        fill: #242121;
      }
    </style>
  </defs>
  <title>arrow-drop</title>
  <path class="cls-1" d="M25,183.6v-6.3c.2-20.1,14.2-31.4,27.5-43.1,4.9-4.3,11.2-5.1,17.6-5H84.8c11.8-.2,20.2,6.3,28,14l165,165c7.4,7.4,15,14.7,22.3,22.5,2.4-1.1,3.7-3.4,5.5-5.2L488.4,142.8c7.6-7.6,15.9-13.8,27.4-13.6h14.8c9.2-.4,16.9,2.9,23.1,9.7,3.7,4,7.9,7.7,11.6,11.8,6.5,7,10,15.3,9.6,25q0,3.5,0,7.1c.9,12.8-5,22.8-13.7,31.5L520,255.5,313.1,462.4c-3.2,3.2-6.2,6.4-10.3,8.4H298a36.6,36.6,0,0,1-8.7-6.7L41.1,215.9C32,206.8,26.1,196.5,25,183.6Z" transform="translate(-25 -129.2)"/>
</svg>
