<svg id="Layer_1" data-name="Layer 1" xmlns="http://www.w3.org/2000/svg" viewBox="0 0 549.9 550">
  <defs>
    <style>
      .cls-1 {
        fill: #262223;
      }
    </style>
  </defs>
  <title>calendar</title>
  <g>
    <path class="cls-1" d="M277.3,208.7H76.5c-4.1,0-5.4.7-5.4,5.2q.2,109.2,0,218.5c0,4.5,1.5,5.1,5.4,5.1,42.2-.1,84.4,0,126.7-.2,4.5,0,5.7,1.2,5.6,5.6-.3,12.2-.2,24.3-.1,36.5,0,3.3-.9,4.2-4.2,4.2-44.7-.1-89.5.1-134.2-.2-25.6-.2-45.2-20.6-45.2-46.1q0-149,0-297.9A45.6,45.6,0,0,1,70.7,93.7c13.8,0,27.6.2,41.3-.1,4.3-.1,5,1.4,4.9,5.2-.2,12,.1,24-.2,36-.1,3.7,1,5,4.8,4.8a115.9,115.9,0,0,1,13.9,0c3.2.2,3.9-1.1,3.9-4-.1-23.8-.1-47.6-.1-71.4,0-11.8.1-23.6,0-35.4,0-2.8.8-3.7,3.6-3.6,13.1.1,26.1.2,39.2,0,3.5-.1,3.6,1.6,3.6,4.2-.1,19.9.1,39.7-.1,59.6,0,4,.9,5,5,5,50.5-.2,100.9-.1,151.4-.2,3.3,0,4.2.9,4.2,4.2-.2,12.2.2,24.3-.2,36.5-.1,4.4,1.4,5.5,5.5,5.2a76.4,76.4,0,0,1,12.9,0c3.9.4,4.3-1.3,4.3-4.6-.1-34.9.1-69.8-.1-104.7,0-4.3,1.1-5.3,5.3-5.2,12.3.3,24.7.2,37,0,3.4-.1,4.1,1,4.1,4.2-.1,19.9.1,39.7-.2,59.6,0,4.1,1.1,5.1,5,5,8.6-.1,17.2-.9,25.7.6,21.5,3.8,37.5,21.8,37.9,43.7s0,44.4.2,66.6c0,4.2-2.1,4-5,4H277.3Z" transform="translate(-25.1 -25)"/>
    <path class="cls-1" d="M574.9,404.1c-.7-5.8-1.2-11.7-2.2-17.5C553.8,277,429.6,219.2,333.6,275.9c-47.7,28.2-74.9,70.9-79,126.6s16.3,101.1,58.8,136.7c26.2,21.9,56.9,33,90.7,35.8h20.5c38.3-3.1,72-17.1,100-43.6,30.7-29,47-64.9,50.5-106.8ZM413.8,528.8c-63.7-.4-114.1-52.4-113.5-117.2.5-60.1,53.1-111.6,113.6-111.3,64,.4,115.2,51.5,114.9,114.8S476.6,529.1,413.8,528.8Z" transform="translate(-25.1 -25)"/>
    <path class="cls-1" d="M391.3,379.9c0-17.5.1-35-.1-52.5,0-3.8.9-4.9,4.7-4.8,12.3.2,24.7.2,37,0,3.5-.1,4.5.8,4.5,4.4-.2,20,0,40-.1,60,0,3.5.8,4.5,4.4,4.5,12.1-.2,24.3.1,36.5-.2,4.5-.1,5.3,1.4,5.3,5.5-.2,12.1-.2,24.3,0,36.5,0,3.2-.7,4.3-4.1,4.3q-41.8-.2-83.6,0c-3.6,0-4.5-1.1-4.4-4.5.1-17.7.1-35.4.1-53.1Z" transform="translate(-25.1 -25)"/>
  </g>
</svg>
