<svg id="Layer_1" data-name="Layer 1" xmlns="http://www.w3.org/2000/svg" viewBox="0 0 527.3 550">
  <title>call</title>
  <g>
    <path d="M297.5,483.1q-107.6,0-215.2-.1c-16.8,0-36.5,2.4-43.9-17.3C29.8,443.1,50.1,437,65,430.1c46.5-21.7,68.1-51.1,54-107.5-9.8-39.1-5.8-82.8-2-123.9C124.7,113.6,220.9,24,299.3,25c70,.9,160.7,77.4,179,150.9,12.5,50.4,11.7,101.3,1.5,151.6-9.8,48,5.5,80,50.1,100.3,15.6,7.1,41.2,10.9,31.8,37.6-8,22.8-30.6,17.7-49,17.7C440.9,483.3,369.2,483.1,297.5,483.1Z" transform="translate(-36.3 -25)"/>
    <path d="M221.4,507.2c47.8,0,88.4.4,129-.1,34.9-.4,25.3,17.3,14.1,34.5-15.4,23.7-38.2,35.2-66.4,33.2C261,572.3,237,552.7,221.4,507.2Z" transform="translate(-36.3 -25)"/>
  </g>
</svg>
