<svg id="Layer_1" data-name="Layer 1" xmlns="http://www.w3.org/2000/svg" viewBox="0 0 550 548.9">
  <defs>
    <style>
      .cls-1 {
        fill: #252122;
      }
    </style>
  </defs>
  <title>close</title>
  <path class="cls-1" d="M575,511.9v2.4c-3.3,17.5-10.2,32.8-24.2,44.9-11.3,9.7-23.2,16.1-38.4,15.1H489.5c-21.7,1.6-35.8-12.2-49.4-25.6-44-43.2-87.3-87-130.9-130.6-11-11-11.1-11-22-.1L151.3,554c-12.2,12.2-25.8,21.3-44.1,20.3H84c-28.2,2.7-61.5-31.2-58.9-58.6q0-11.6,0-23.1C24,473.9,33.6,460,46,447.6L180.8,312.8c11.6-11.6,11.6-11.6.3-22.8q-63.5-63.5-127-127a234.8,234.8,0,0,1-19-22.2c-7.1-9.1-10.6-19.1-9.9-30.6q0-11.6,0-23.1c.3-33.4,26.5-59,62.7-61.3h14.9c18.8-.5,33.6,7.6,46.5,20.6q69,69.3,138.2,138.3c10.6,10.6,10.7,10.6,21.1.3L446.9,46.7c12.8-12.8,27.6-21.4,46.4-20.9h14.9c28.8-2.6,66.4,26.9,65.4,65.1q0,7.5,0,14.9c.5,19.9-9.5,35.1-22.7,48.4Q484.2,221.4,417,288.3c-12.9,12.9-12.9,12.9-.4,25.5Q485,382.1,553.4,450.4c12.7,12.6,20.7,27.1,20.4,45.5C574.3,501.2,572.4,506.7,575,511.9Z" transform="translate(-25 -25.5)"/>
</svg>
