<svg id="Layer_1" data-name="Layer 1" xmlns="http://www.w3.org/2000/svg" viewBox="0 0 550 550">
  <defs>
    <style>
      .cls-1 {
        fill: #242021;
      }

      .cls-2 {
        fill: #262223;
      }
    </style>
  </defs>
  <title>complete</title>
  <g>
    <path class="cls-1" d="M575,296.2c-2-3.2-.5-6.8-1-10.1s0-7,0-10.5c.1-10.5,0-21-2.2-31.2C555.5,168.6,515,109.1,450.1,66.9,412.6,42.5,372,26,326.2,26H315.8c-3.3-.5-6.9,1-10-1H294.3c-3.2,2-6.8.5-10.1,1H273.7c-12.7-.1-25.4.7-37.8,3.8C163.7,48,106.7,87.9,66.3,150.6,42.3,188.1,26.1,228.4,26,273.8q0,5.2,0,10.4c-.5,3.3,1,6.9-1,10v11.5c2,3.2.5,6.8,1,10.1s0,7,0,10.5c-.1,12.7.7,25.4,3.8,37.8,18.5,72.5,58.4,129.8,121.6,170.1,37.8,24,78.5,40.2,124.3,39.9h10.4c3.3.5,6.9-1,10,1h9.5c3.2-2,6.8-.5,10.1-1h10.5c9.8.1,19.7-.2,29.3-2.2,76.1-16.4,135.8-57.1,178-122.4,24.1-37.3,40.2-77.8,40.4-123.2q0-5.2,0-10.4c.5-3.3-1-6.9,1-10Zm-275.9,214c-115.7-.4-209.5-94.9-209.3-210.6s94.8-210.2,211-209.8,209.5,94.8,209.4,210.6S415.2,510.6,299.1,510.2Z" transform="translate(-25 -25)"/>
    <path class="cls-2" d="M391.7,300.3c0,28-.2,56,.1,84,.1,5.6-1,7.5-7.2,7.5q-84.5-.4-169,0c-5.6,0-7.5-1-7.5-7.2q.4-84.5,0-169c0-5.6,1-7.5,7.2-7.5q84.5.4,169,0c6.9,0,7.5,2.5,7.4,8.2C391.5,244.3,391.7,272.3,391.7,300.3Z" transform="translate(-25 -25)"/>
  </g>
</svg>
