<svg id="Layer_1" data-name="Layer 1" xmlns="http://www.w3.org/2000/svg" viewBox="0 0 453.9 550">
  <defs>
    <style>
      .cls-1 {
        fill: #1d1d1b;
      }
    </style>
  </defs>
  <title>copy</title>
  <path class="cls-1" d="M73,85.9V445.8a60.9,60.9,0,0,0,60.9,60.9h40.3v7.5A60.9,60.9,0,0,0,235,575H466.1A60.9,60.9,0,0,0,527,514.1V154.2a60.9,60.9,0,0,0-60.9-60.9H425.8V85.9A60.9,60.9,0,0,0,365,25H133.9A60.9,60.9,0,0,0,73,85.9ZM213.4,514.1V154.2A21.6,21.6,0,0,1,235,132.6H466.1a21.6,21.6,0,0,1,21.6,21.6V514.1a21.6,21.6,0,0,1-21.6,21.6H235a21.6,21.6,0,0,1-21.6-21.6ZM112.3,445.8V85.9a21.6,21.6,0,0,1,21.6-21.6H365a21.6,21.6,0,0,1,21.6,21.6v7.5H235a60.9,60.9,0,0,0-60.9,60.9V467.4H133.9a21.6,21.6,0,0,1-21.6-21.6Z" transform="translate(-73 -25)"/>
</svg>
