<svg id="Layer_1" data-name="Layer 1" xmlns="http://www.w3.org/2000/svg" viewBox="0 0 547.1 459.7">
  <title>dashboard</title>
  <path d="M27.2,358.7V107c0-22.1,13.6-36.2,35.4-36.2H536.8c24.6,0,37.5,13.1,37.3,37.5-.1,11.4.3,22.8-.2,34.1a15.3,15.3,0,0,1-3.8,9.4c-29.6,29.9-59.6,59.5-89.3,89.3-3.3,3.3-5.9,3.8-10,1.4q-37.6-22.6-75.5-44.9c-8.1-4.8-12.3-3.9-17.7,3.9-25.4,36-50.9,71.9-76,108.1-3.3,4.7-5.8,5.5-10.9,2.9-45.3-21.6-90.9-42.7-136.2-64.3-6.6-3.2-11.3-2.2-16.4,2.9Q86.6,302.9,34.8,354.4c-1.8,1.8-3.9,3.4-5.8,5.1Z" transform="translate(-27.1 -70.8)"/>
  <path d="M574,180.1q0,31,0,62,0,79.8,0,159.7v6.8c-.4,20.7-13.6,34.3-34.3,34.4-46.8.2-93.7.1-140.6.1H63.6c-23.1,0-35.5-12.9-36.5-35.8-.5-11.1,2.8-18.8,10.9-26.7,35.8-34.9,71-70.5,106.2-106,4.1-4.1,7.2-4.5,12.3-2,44.3,21.1,88.7,42,133.1,62.9,13.5,6.4,15.2,6,24-6.5,24.4-34.5,48.8-69,73-103.7,3.4-4.8,6-5.4,10.9-2.4,23.7,14.4,47.6,28.4,71.4,42.6,9.1,5.5,12.1,5.1,19.7-2.4l78.6-78.7a36.3,36.3,0,0,0,4.1-6.2Z" transform="translate(-27.1 -70.8)"/>
  <path d="M201.9,507.5c0-7.6-.1-14.1,0-20.7.3-13.8,9-22.8,22.7-22.9q76.1-.2,152.1-.1c13.4,0,22.5,9.3,22.8,22.9.2,6.6,0,13.1,0,20.8H429c10,0,14.2,3.3,14.2,11.1s-5,11.8-14.2,11.8H177.1a52.5,52.5,0,0,1-10.2-.5,11,11,0,0,1-9-12.5c.9-6.7,4.5-9.9,11.3-9.9Z" transform="translate(-27.1 -70.8)"/>
</svg>
