<svg id="Layer_1" data-name="Layer 1" xmlns="http://www.w3.org/2000/svg" viewBox="0 0 550 396.3">
  <defs>
    <style>
      .cls-1 {
        fill: #232021;
      }

      .cls-2 {
        fill: #242021;
      }

      .cls-3 {
        fill: #262223;
      }
    </style>
  </defs>
  <title>envelope</title>
  <g>
    <path class="cls-1" d="M529.9,101.8h1.2c5.4,1.5,11.3,1,16.3,4.1s5,4.7,1.6,8.6c-1.4,1.7-3.1,3.2-4.7,4.8Q454.7,209,365.1,298.7c-10.6,10.6-20.5,22-31.4,32.4-5.6,5.3-11.3,10.6-19,12.9-16.1,4.8-30.5,2.2-42.8-9.6l-2.2-2.1L56,118.4c-2.5-2.5-6.8-4.6-5.7-8.7s6.4-5.1,10.4-6.4c2.3-.8,4.8-.5,7-1.5h2.4c6.8,1.4,13.7.2,20.5.6H512.8C518.5,102.1,524.2,103.3,529.9,101.8Z" transform="translate(-25 -101.8)"/>
    <path class="cls-2" d="M72.6,498.2H66.5c-4.1-1.7-8.7-1.7-12.6-4.1s-5-4.7-1.7-8.6c1.2-1.4,2.5-2.6,3.8-3.9C73.5,464,90.8,446.4,108.5,429c34.5-33.8,67.4-69.3,101.9-103.1l3.9-3.9c5.7-5.5,7.3-5.5,13.1.2,9,8.9,17.9,17.7,26.7,26.7a75.5,75.5,0,0,0,19.1,13.8c22.3,11.8,51.6,6.4,69-8.5,10.9-9.3,19.7-20.4,29.9-30.3,7.4-7.1,8.3-7.2,15.7.2L545.9,482.2c7.6,7.6,6.8,10.7-3.4,13.9a38.8,38.8,0,0,1-13.3,1.4H86.1C81.6,497.9,77,496.8,72.6,498.2Z" transform="translate(-25 -101.8)"/>
    <path class="cls-3" d="M25,144.5c3-2.4,2.3-6.1,3.5-9.2,2.7-6.7,3.3-6.9,8.3-1.9l50.4,50.4L195.8,292.4a32,32,0,0,0,3,3c3.6,2.8,3.3,5,.1,8.2-21.3,21.2-42.4,42.6-63.6,63.9L36.8,466.5c-5.2,5.2-5.5,4.9-8.3-1.7-1.5-3.4-.5-7.6-3.5-10.5v-2.4c1.3-3.3.3-6.7.6-10s0-4.2,0-6.3q0-8.8,0-17.5,0-3.3,0-6.6,0-8.9,0-17.7,0-3.3,0-6.6,0-8.9,0-17.7,0-3.3,0-6.6,0-8.9,0-17.7,0-3.3,0-6.6,0-8.9,0-17.7,0-3.3,0-6.6,0-8.9,0-17.7,0-3.3,0-6.6,0-8.9,0-17.7,0-3.3,0-6.6,0-8.9,0-17.7,0-3.3,0-6.6,0-8.9,0-17.7,0-3.3,0-6.6,0-8.9,0-17.7,0-3.3,0-6.6,0-8.9,0-17.7,0-3.3,0-6.6c-.4-6.9.7-13.8-.6-20.6Z" transform="translate(-25 -101.8)"/>
    <path class="cls-3" d="M575,455.5c-1.2,3.6-2.5,7.1-3.6,10.7s-2.6,4.7-5.8,1.3c-13.8-14.1-27.8-27.9-41.7-41.8L404.5,306.4c-5.9-5.9-6-5.9-.1-11.8L563.8,134.3c5.9-5.9,6.1-5.9,8.7,2.2.8,2.5,1.8,5,1.5,7.7,1.2,2-.4,4.4,1.1,6.3v11a47.2,47.2,0,0,0,0,17.1V186a47.2,47.2,0,0,0,0,17.1v7.3a47.2,47.2,0,0,0,0,17.1v7.3a47.2,47.2,0,0,0,0,17.1v7.3a47.2,47.2,0,0,0,0,17.1v7.3a47.2,47.2,0,0,0,0,17.1v7.3a47.2,47.2,0,0,0,0,17.1v7.3a47.2,47.2,0,0,0,0,17.1v7.3a47.2,47.2,0,0,0,0,17.1v7.3a47.2,47.2,0,0,0,0,17.1v7.3a47.2,47.2,0,0,0,0,17.1v7.3a47.2,47.2,0,0,0,0,17.1Z" transform="translate(-25 -101.8)"/>
  </g>
</svg>
