<svg id="Layer_1" data-name="Layer 1" xmlns="http://www.w3.org/2000/svg" viewBox="0 0 550 550">
  <defs>
    <style>
      .cls-1 {
        fill: #231f20;
      }

      .cls-2 {
        fill: #252122;
      }
    </style>
  </defs>
  <title>fail</title>
  <path class="cls-1" d="M575,285.9c-1.1-1.3-.6-2.9-.6-4.3a206.3,206.3,0,0,0-7-50C552.1,174,521.8,125.9,476.1,87.7,438.6,56.5,395.7,37,347.8,28.2c-11.1-2-22.5-1.5-33.6-3.2h-7.7a25.7,25.7,0,0,1-12.9,0H283.3c-12.2,1.8-24.6,1.6-36.7,4.2C181.6,42.9,127.7,74.9,85.7,126.4,55,164,36,207,27.8,254.8c-1.6,9.5-.9,19.1-2.8,28.5v10.3a25.7,25.7,0,0,1,0,12.9v1.3a9.8,9.8,0,0,1,0,7.7v1.3c1,1.1.6,2.4.7,3.7a209.7,209.7,0,0,0,7.2,48.7c15.4,57.3,45.5,105.3,91.1,143.2,37.4,31.2,80.4,50.7,128.3,59.5,10.3,1.9,20.8,1.4,31,3.2h9a22,22,0,0,1,11.6,0h10.3c1.7-1.3,3.7-.6,5.6-.6a209.5,209.5,0,0,0,50.6-7.6c55.4-15.1,102-44.2,139.5-87.8,29.7-34.6,49.1-74.3,59.5-118.6,3.5-14.8,4.2-29.9,5.7-44.9V305.1a25.7,25.7,0,0,1,0-12.9Zm-55.8,15.9c-1.7,120.9-100.4,218.4-219.4,217.6-122-.8-219.1-99.4-219.1-219.8C82.3,176.9,181.5,78.8,302,80.7S521,181.9,519.2,301.7Z" transform="translate(-25 -25)"/>
  <path class="cls-2" d="M420,218c-.4,2-2.2,3-3.5,4.4-24.2,24.3-48.3,48.6-72.8,72.6-4.4,4.3-3.7,6.4.2,10.3,24.4,24.1,48.5,48.4,72.9,72.5,3.5,3.4,3.5,5.2,0,8.6q-15.8,15.1-30.9,30.9c-3.5,3.6-5.3,3.1-8.6-.2-24.2-24.5-48.8-48.7-73-73.3-3.8-3.8-5.7-3.8-9.4,0-24,24.4-48.4,48.5-72.5,72.9-3.6,3.6-5.6,4.4-9.5.2-9.7-10.3-19.7-20.3-30-30-3.8-3.6-4.1-5.6-.2-9.5,24.6-24.2,48.8-48.8,73.3-72.9,3.8-3.7,3.2-5.6-.2-8.9-24.5-24.2-48.8-48.8-73.3-73-3.7-3.6-3.6-5.6.1-9.1q15.8-15.1,30.9-30.9c3.2-3.4,5.1-2.9,8.1.2,24.4,24.7,49.1,49.1,73.4,73.8,3.6,3.6,5.4,3.5,8.9-.1,24.2-24.5,48.8-48.8,73-73.3,3.5-3.6,5.5-3.9,9-.1,10,10.5,20.5,20.7,30.8,31C418.1,215.2,419.7,216.1,420,218Z" transform="translate(-25 -25)"/>
</svg>
