<svg id="Layer_1" data-name="Layer 1" xmlns="http://www.w3.org/2000/svg" viewBox="0 0 550 549.9">
  <title>in-progress</title>
  <g>
    <path d="M485.9,327.2H425.3c-16-.1-28.3-12.1-28.1-27.4s12.2-26.9,27.8-27H546.8c16.3,0,28.1,11.5,28.2,27s-11.7,27.2-27.9,27.3Z" transform="translate(-25 -25.1)"/>
    <path d="M272.9,486.1c0-20.2,0-40.4,0-60.6.1-16.1,11.7-28.2,27.1-28.3s27.2,12.1,27.2,28.2q.1,60.9,0,121.8c0,16.1-11.7,27.9-27.4,27.8s-26.8-11.9-26.9-27.6C272.8,526.9,272.9,506.5,272.9,486.1Z" transform="translate(-25 -25.1)"/>
    <path d="M327.2,114.2c0,20.2.1,40.4,0,60.6-.1,15.7-11.8,27.8-26.9,27.9s-27.4-12-27.4-28q-.1-60.6,0-121.3c0-16.7,11.6-28.4,27.5-28.4s26.7,12.1,26.8,28.5C327.3,73.7,327.2,94,327.2,114.2Z" transform="translate(-25 -25.1)"/>
    <path d="M113.7,272.8h60c16.8,0,28.9,11.3,29.1,27s-12.2,27.3-28.8,27.3H52.7c-14.1,0-25.9-10.1-27.5-23.1s6.5-26.5,20.2-30.4a31.9,31.9,0,0,1,8.9-.8Z" transform="translate(-25 -25.1)"/>
    <path d="M387.5,360.7c7.8.3,14.3,2.6,19.6,7.9,29.2,29.1,58.4,58.2,87.5,87.5,11.1,11.2,10.7,27.9-.3,38.6s-27.1,10.7-38.2-.2q-44-43.5-87.5-87.5c-8.3-8.4-10.2-18.7-5.4-29.7S376.5,361.5,387.5,360.7Z" transform="translate(-25 -25.1)"/>
    <path d="M239.5,212.3c-1,11.3-6,20-16.8,24.6s-21.2,2.7-29.7-5.5c-15.2-14.8-30.1-30-45.2-45s-28.7-28.4-42.7-42.9c-8.2-8.5-9.9-18.8-5.1-29.7a27,27,0,0,1,25.7-16.2,25.9,25.9,0,0,1,17.9,7.6q44.3,44.1,88.4,88.4C237.1,198.6,239.1,205.1,239.5,212.3Z" transform="translate(-25 -25.1)"/>
    <path d="M502.6,126.8a27,27,0,0,1-8.1,17.3c-29,29-57.9,58.1-87.1,87-11.3,11.2-27.8,10.9-38.6-.1s-10.8-27.4.4-38.7q43.1-43.4,86.6-86.6c8.6-8.5,18.8-10.7,30.1-6.1S502.7,114.1,502.6,126.8Z" transform="translate(-25 -25.1)"/>
    <path d="M239.3,389.8a27.2,27.2,0,0,1-8.1,17.6c-29,29-57.9,58.1-87.1,87-11.3,11.2-27.9,10.9-38.6,0s-10.8-27.4.4-38.7q43.1-43.5,86.6-86.6c8.6-8.5,18.8-10.8,30.1-6.1S239.4,377.4,239.3,389.8Z" transform="translate(-25 -25.1)"/>
  </g>
</svg>
