<svg id="Layer_1" data-name="Layer 1" xmlns="http://www.w3.org/2000/svg" viewBox="0 0 550 550">
  <title>minus</title>
  <g>
    <path d="M542,58q-33-33-79.5-33h-325Q91,25,58,58T25,137.5v325Q25,509,58,542t79.5,33h325q46.5,0,79.5-33t33-79.5v-325Q575,91,542,58ZM525,462.5q0,25.8-18.4,44.1T462.5,525h-325q-25.8,0-44.1-18.4T75,462.5v-325q0-25.8,18.4-44.1T137.5,75h325q25.8,0,44.1,18.4T525,137.5v325Z" transform="translate(-25 -25)"/>
    <path d="M462.5,275h-325A12,12,0,0,0,125,287.5v25A12,12,0,0,0,137.5,325h325A12,12,0,0,0,475,312.5v-25A12,12,0,0,0,462.5,275Z" transform="translate(-25 -25)"/>
  </g>
</svg>
