<svg id="Layer_1" data-name="Layer 1" xmlns="http://www.w3.org/2000/svg" viewBox="0 0 507.6 550">
  <title>open-email</title>
  <g>
    <path d="M553.6,229.8q0,156.9,0,313.8c0,.9.1,1.8.2,2.7-2.4,1.9-3.6-.7-4.9-1.6L374,425.8l-53.3-36.3c.8-2.3,2.9-2.9,4.5-4q75.5-51.5,151.1-102.9c3.2-2.2,4.6-4.4,4.6-8.4q-.2-76.6,0-153.3c0-4.6-.6-6.2-5.9-6.2q-175.1.3-350.1,0c-5.1,0-5.9,1.5-5.9,6.2q.2,76.6,0,153.3c0,4,1.3,6.2,4.5,8.4q75.7,51.3,151.2,102.9l4.4,3.2c-.6,2-2.3,2.4-3.6,3.3L51.1,544.7c-1.3.9-2.5,3.6-4.9,1.7.1-29.5.2-59.1.2-88.6q0-114,0-227.9c14.4-11.7,28.7-23.5,43.3-35a9.5,9.5,0,0,0,4-8.3c-.2-30.9,0-61.8-.2-92.6,0-4.1.9-5.2,5.1-5.2,38.8.2,77.6.1,116.4.2a13.7,13.7,0,0,0,9.4-3.4c23.9-19.6,47.9-38.9,71.8-58.5,3-2.5,4.8-2.5,7.8,0,23.8,19.6,47.9,39,71.8,58.5a13.7,13.7,0,0,0,9.4,3.4c38.6-.1,77.2,0,115.8-.2,4.6,0,5.7,1.2,5.7,5.8-.2,30.7,0,61.4-.2,92.1a9.5,9.5,0,0,0,4,8.4C524.9,206.4,539.2,218.2,553.6,229.8Z" transform="translate(-46.2 -25)"/>
    <path d="M551.4,574.9H48.6c.3-2.2,2.3-2.7,3.8-3.7l243.5-166c3.1-2.1,5.1-2.1,8.2,0l243.5,166C549.1,572.2,551.1,572.7,551.4,574.9Z" transform="translate(-46.2 -25)"/>
  </g>
</svg>
