<svg id="Layer_1" data-name="Layer 1" xmlns="http://www.w3.org/2000/svg" viewBox="0 0 482.3 550">
  <title>phone</title>
  <path d="M147.2,24.3c.9.9,2.2.4,3.3.6,8.1,1.4,14.9,5.6,21,10.8,10.8,9.2,18.7,20.7,26.3,32.4,11.9,18.3,22.3,37.3,29.4,58a94.8,94.8,0,0,1,5,22.4,34.3,34.3,0,0,1-.8,10.8,5.2,5.2,0,0,1-.9,2c-10.1,13.2-19.7,26.8-28.7,40.8-4.1,6.3-9.4,11.9-13.4,18.3-7,11-10.7,22.9-10.1,36.1.5,10,3.1,19.4,6.7,28.7A356.4,356.4,0,0,0,236.3,374c11.3,14.4,23.8,27.7,38.6,38.6,10.8,8,22.5,14.1,35.9,16.9,9.2,1.9,18.2.7,27.1-1.7a93.1,93.1,0,0,0,32.9-15.8c3.9-3,8.7-3.9,13.5-4.5,12-1.6,22.8,1.8,32.8,8.3a320,320,0,0,1,47.5,37.9c10.5,10,20.3,20.7,28.1,33,4.5,7,8.2,14.4,9.6,22.7,1.1,6.5.4,12.7-3.1,18.4-11.6,19.1-28.5,31.6-49.2,39.3-11.7,4.3-23.8,6.3-36.2,7a15.7,15.7,0,0,1-3.1.1H401c-13.2,0-26-2.4-38.8-5.8-21.2-5.6-41.1-14.4-60.3-24.7a350.3,350.3,0,0,1-63.3-43.3c-7.4-6.3-14.4-12.9-21.4-19.6-18.1-17.6-34.4-36.8-49.9-56.6-10-12.7-19.9-25.5-29.5-38.5a470.9,470.9,0,0,1-37.1-58.4,384.6,384.6,0,0,1-28-65.6,302.3,302.3,0,0,1-11.9-53.2c-1.6-12.9-1.8-25.8-1.7-38.8A222.8,222.8,0,0,1,79.5,81.2c2.1-4.4,5.1-8.3,7.9-12.3a165.5,165.5,0,0,1,20.3-24c7.1-6.8,14.7-12.8,23.8-16.8,4.5-2,9.2-3.6,14.3-3.5.4,0,.7.1,1-.2Z" transform="translate(-59.1 -24.3)"/>
  <path d="M541.4,258.5v4.4a22.9,22.9,0,0,0,0,5.6v4.8c-.4,5.1-.7,10.2-1.2,15.2-1.4,12.7-13.2,22.4-25.6,21s-23-13-21.6-26.1c3.8-35.2-3.1-68.2-21.6-98.3-24.9-40.5-61-65.2-107.8-73.9-3.5-.7-7.1-1-10.6-1.6a23.6,23.6,0,0,1-20-26.2,23.4,23.4,0,0,1,25.3-20.8,185.6,185.6,0,0,1,64.6,17.8q92,44.7,114.4,144.7C539.8,236.1,540.8,247.3,541.4,258.5Z" transform="translate(-59.1 -24.3)"/>
  <path d="M454.9,267.7c.1,5.8.1,11.7-2,17.2A23.7,23.7,0,0,1,407.2,274a71.1,71.1,0,0,0-55.5-77.3c-2.9-.6-5.9-.9-8.8-1.5-12.6-2.4-21.3-14.2-19.3-26.2,2.2-13.6,13.5-22.3,26.9-20.6,27.2,3.4,50.7,14.6,70.1,34.1s31.3,44.3,34.1,72.5a43.6,43.6,0,0,1,.3,8.7A6.8,6.8,0,0,0,454.9,267.7Z" transform="translate(-59.1 -24.3)"/>
</svg>
