<svg id="Layer_1" data-name="Layer 1" xmlns="http://www.w3.org/2000/svg" viewBox="0 0 550 346.3">
  <title>record</title>
  <path d="M173.5,341.4c-21.8,0-49.7-17.1-49.7-48.1,0-24.2,18.7-48.5,49.5-48.5,27.9,0,49.1,22.8,49.1,47.7S203,341.4,173.5,341.4Zm254.2.2a49.8,49.8,0,0,1-50.3-49.5c0-27.7,26.1-47.5,50.1-47.5s48.7,18.9,48.7,49.3C476.2,317.9,455,341.6,427.7,341.6ZM423.6,390c61.1,0,102.1-48.5,102.1-95.3-2-67.2-55.6-99.6-97.4-99.4-46,.8-84.3,32.6-94.7,73.3-6.7,34.2.4,48.7,6.5,64.8,3.9,6.3.4,13.6-8.6,13.6H272.1c-6.5-.4-12.6-6.1-7.9-14.1,7.3-14.1,8.8-27.9,9-42,0-57.4-50.1-95.5-97.6-95.5-57.2,0-100.2,43.8-100.2,97.6,1.2,57.4,50.3,97,99.2,97ZM53.5,473.1C42.1,473.1,25,465.2,25,444V154.6c0-15.7,12.2-27.7,28.5-27.7H546.7c16.5,0,28.3,13.4,28.3,27.5V445.4c0,13.9-11.6,27.7-27.9,27.7Z" transform="translate(-25 -126.9)"/>
</svg>
