<svg id="Layer_1" data-name="Layer 1" xmlns="http://www.w3.org/2000/svg" viewBox="0 0 547.2 548.3">
  <defs>
    <style>
      .cls-1 {
        fill: #242121;
      }

      .cls-2 {
        fill: #242021;
      }
    </style>
  </defs>
  <title>reports</title>
  <path class="cls-1" d="M24.1,315.5V301.4c2.9-4,1.2-8.7,1.9-13,8.5-50,30-93.5,65-130.4,31.1-32.8,68.5-55,111.7-67.8a97.6,97.6,0,0,1,11.5-2.7c11.2-1.9,17.9,3.3,18.3,14.6q.5,13,.4,26-.5,78.3,0,156.6c0,8.1-.2,16.2,1.2,24.3,5.8,33.8,33.8,56.7,68.3,56.5,46.2-.2,92.3-.1,138.5,0,17.6,0,35.1-.1,52.7.1,14.2.1,19.8,7,16,20.8-28,100.3-93,161.6-194.4,184.5-8.7,2-17.7.8-26.3,3.2H276.1a31.5,31.5,0,0,0-15.8,0H247.8c-5.3-3.1-11.3-1.3-16.9-2.3-44.5-7.4-84.3-25-118.8-54.1-44.4-37.3-72.3-84.4-84.4-141.1-1.6-7.7-.5-15.7-3.5-23V339.2A71,71,0,0,0,24.1,315.5Z" transform="translate(-24.1 -25.6)"/>
  <path class="cls-2" d="M274.7,33.9c8.1-5.2,17.2-7.5,26.7-8.3,25,4,49.7,9,73.5,18a311.3,311.3,0,0,1,92.9,55.2,302.3,302.3,0,0,1,73,93c15.9,31.1,26.5,64.2,30.2,99,3.3,30.4-14,49.1-44.4,49.1H302.2c-27.3,0-44.1-16.7-44.1-43.9-.1-75.6.1-151.2-.1-226.7C257.9,54.6,263.7,43.1,274.7,33.9Z" transform="translate(-24.1 -25.6)"/>
</svg>
