<svg id="Layer_1" data-name="Layer 1" xmlns="http://www.w3.org/2000/svg" viewBox="0 0 550 546.6">
  <defs>
    <style>
      .cls-1 {
        fill: #414042;
      }
    </style>
  </defs>
  <title>responses</title>
  <path class="cls-1" d="M565.2,54.3c-13.9-20-33.2-27.9-56.7-27.6H91.5c-14.5,1.1-28.7,2-41.2,11.8C32.2,52.8,25.1,71.3,25.2,93.4q0,233.6.1,467.3c0,4.2-1.1,8.6,1,12.6h2.1c8.1-3.3,14.5-8.6,20.6-14.8,33.9-34.1,68.2-67.8,101.7-102.2,9.2-9.4,18.7-13.4,31.9-13.4q159.7.6,319.4.2c43.4-.1,70.3-25.9,73-69.1q0-140.5,0-281.1C573.9,79.5,573.4,66.2,565.2,54.3Zm-368,213.1c-19.2-.1-34.2-15.4-34.1-34.8a34,34,0,0,1,34-33.8c19.4,0,34.6,15,34.7,34.2A34.1,34.1,0,0,1,197.2,267.5Zm102.5,0a34.2,34.2,0,0,1-33.9-33.9c-.1-19.7,15.4-35,35.3-34.7a34.3,34.3,0,0,1-1.4,68.6Zm102.8,0a34.1,34.1,0,0,1-34-34.9c.2-19.2,15.6-34.1,35.1-33.8s33.9,15.9,33.5,35.4S421.3,267.7,402.5,267.5Z" transform="translate(-25 -26.7)"/>
</svg>
