<svg id="Layer_1" data-name="Layer 1" xmlns="http://www.w3.org/2000/svg" viewBox="0 0 550 550">
  <defs>
    <style>
      .cls-1 {
        fill: #232021;
      }

      .cls-2 {
        fill: #252223;
      }

      .cls-3 {
        fill: #262223;
      }
    </style>
  </defs>
  <title>sad</title>
  <g>
    <path class="cls-1" d="M575,281.9a2.9,2.9,0,0,1-.6-2.2c.1-16.6-2.7-32.8-7-48.7q-22.2-83.7-87.8-140.3c-36.4-31.4-78.2-51.5-125.2-61.4-12-2.5-24.2-2.7-36.3-4.2h-7.2c-2.4,1.3-5,.3-7.5.6s-6.4.7-9.4-.6H279.5c-8.3,1.6-16.7,1-25,2.5C189,39.3,134.2,70,90.6,120.4,59,156.9,38.9,199,29.1,246.2c-2.3,11-2.4,22.2-4.1,33.3V294a20.6,20.6,0,0,1,0,10.9v6a1.6,1.6,0,0,1,0,2.4v7.2c1.6,8.3,1,16.7,2.5,25C39.3,411,70,465.8,120.4,509.4c36.3,31.4,78.2,51.6,125.2,61.4,11.6,2.4,23.4,2.6,35.1,4.2h4.8c1.6-1.2,3.4-.4,5.1-.6h18.9c1.7.2,3.5-.6,5,.6h2.4c6.9-1.2,13.9-.7,20.8-1.6A262.7,262.7,0,0,0,421,548.2,277.4,277.4,0,0,0,571.8,348.4c1.8-9.7,1.7-19.5,3.2-29.2v-4.8c-1.2-1.6-.4-3.4-.6-5.1s0-2.4,0-3.6,0-2.4,0-3.6,0-3,0-4.5,0-2.4,0-3.6,0-2.4,0-3.5-.6-3.5.6-5ZM301.1,524.1C178.3,525.2,77,426.3,75.6,300.8,74.3,181,174.2,78.1,293.4,75.7c126-2.6,228.2,96.4,230.7,219.9C526,421.2,427.3,523,301.1,524.1Z" transform="translate(-25 -25)"/>
    <path class="cls-2" d="M304.1,330.5c49.9,1.5,94.1,22.4,125.7,67.9,3,4.3,2.7,5.9-2.3,7.7-10.7,3.9-21.3,8.2-31.8,12.8-3.8,1.6-5.6,1.2-8.3-2.1-41.9-52.8-125.1-55.3-169.9-5.3-7.6,8.5-7.6,8.5-18.3,4-9-3.8-18-7.9-27.1-11.4-3.9-1.5-4.2-2.8-1.9-6.2,23.7-35.2,57-55.7,98.2-64.2C278.7,331.5,289.1,330.9,304.1,330.5Z" transform="translate(-25 -25)"/>
    <path class="cls-3" d="M276.9,223a38.1,38.1,0,0,1-38.4,38.1c-20.8-.1-37.7-17.4-37.6-38.4a38,38,0,1,1,76.1.2Z" transform="translate(-25 -25)"/>
    <path class="cls-3" d="M400.3,222.7a38,38,0,1,1-37.9-38A38.2,38.2,0,0,1,400.3,222.7Z" transform="translate(-25 -25)"/>
  </g>
</svg>
