<svg id="Layer_1" data-name="Layer 1" xmlns="http://www.w3.org/2000/svg" viewBox="0 0 550 550">
  <defs>
    <style>
      .cls-1 {
        fill: #262223;
      }
    </style>
  </defs>
  <title>search</title>
  <path class="cls-1" d="M574.4,543.1c.4-8.1-4.1-13.7-9.4-19L432,391.1c-5.1-5.1-5.1-5.1-1-10.8,38.2-54.1,50.8-113.9,37.5-178.5-10.7-52.1-37.9-95-79.4-128.4-29.4-23.7-62.9-38.8-100.2-45.7-9-1.6-18.1-1.4-27-2.7h-7.1a15.5,15.5,0,0,1-9.5,0H233.3c-10.9,1.4-22,1.6-32.8,4.2-46.2,11-85.7,33.3-117.9,68.6-25.2,27.7-42.1,59.8-51.8,95.8-3.5,13.1-4.6,26.4-5.9,39.8v11.9a12.2,12.2,0,0,1,0,8.3v1.2a9.1,9.1,0,0,1,0,7.1v2.4c1.2,5.8.6,11.8,1.5,17.6,8.9,55.7,34.4,102.4,77.5,138.6,49.8,41.8,107.7,58.5,172.2,51.3,37.8-4.2,72.1-18.2,103.1-40.1,6.7-4.8,6.7-4.9,12.6,1.1l130,130c5.7,5.7,11.3,11.1,19.8,12.2h1.2c2.6-1.2,5.4-.3,8.1-.6,7.6.3,13.2-3.3,18.1-8.7,3.5-3.8,4.7-8.6,6-13.3v-1.2C573.8,548.6,574.7,545.8,574.4,543.1ZM253.8,417.6C160.4,419.9,82.3,346.3,80,253.9,77.6,159.3,151.5,82.2,246.7,80c91.4-2.2,168.5,72.6,170.9,165.6C419.9,337,345.3,415.4,253.8,417.6Z" transform="translate(-25 -25)"/>
</svg>
