<svg id="Layer_1" data-name="Layer 1" xmlns="http://www.w3.org/2000/svg" viewBox="0 0 550 499.4">
  <defs>
    <style>
      .cls-1 {
        fill: #262324;
      }

      .cls-2 {
        fill: #262223;
      }
    </style>
  </defs>
  <title>sequences</title>
  <g>
    <path class="cls-1" d="M381.8,50.3h1.3A29.1,29.1,0,0,1,394,55.2c48.2,32.5,96.2,65.3,144.5,97.7l30.7,20.8a15.6,15.6,0,0,1,5.8,5.8v1.3c-1.7,2.2-4.2,2.7-6.7,3.2q-100.9,20.1-201.9,39.8c-41.4,8.1-82.8,16.1-124.2,24.5-5,1-10.2,1.4-15.1,2.9-8.3,2.5-15,.5-22.1-4.3L30.4,128.5a15.3,15.3,0,0,1-5.4-5.3v-2.6c5.4-3.5,11.8-3.6,17.7-4.7L166.8,91.6q98.5-19.2,196.8-38.7C369.7,51.7,375.9,51.9,381.8,50.3Z" transform="translate(-25 -50.3)"/>
    <path class="cls-2" d="M25,275.4v-2.6c1.6-1.6,3.8-1.9,5.9-2.3q62.4-12.4,124.8-24.5a17,17,0,0,1,13.3,2.9c12.6,8.4,24.9,17.1,37.5,25.6a20,20,0,0,0,16.2,3.2c51.2-10.2,102.4-20.1,153.6-30.2,17.1-3.4,34.3-6.6,51.4-10.1a19.2,19.2,0,0,1,15.7,3.1l125.9,85.3a15.9,15.9,0,0,1,5.7,5.9V333c-2.4,3-6,3.1-9.2,3.7-103.5,20.1-206.9,40.8-310.4,60.9-10.9,2.1-21.7,4.2-32.6,6.6a16.9,16.9,0,0,1-13.9-2.7l-100-67.7c-24.7-16.6-49.3-33.6-74.1-50.1C31.2,281.2,27.6,279,25,275.4Z" transform="translate(-25 -50.3)"/>
    <path class="cls-1" d="M25,421.2v-1.3c1.3-2.7,4-2.9,6.5-3.4,39-7.9,78.2-15.2,117.3-23.3a16.8,16.8,0,0,1,13.8,3.1c14.9,10.4,30.2,20,44.9,30.6a16.2,16.2,0,0,0,13.8,2.8C276.6,418.6,332.1,408,387.5,397c16.1-3.2,32.3-6.1,48.3-9.5a15.5,15.5,0,0,1,12.6,2.6c39.9,26.6,79.3,53.9,119.3,80.4,2.8,1.9,5.7,3.8,7.3,7v1.3c-1.5,2.9-4.4,3.2-7.1,3.7L341.5,526.8c-34.9,6.8-69.8,13.8-104.7,20.6a117.9,117.9,0,0,1-20.9,2.3c-3.9.2-6.8-2.2-9.8-4.2-29.4-20.5-59.2-40.2-88.8-60.3L30.5,426.3C28.4,425,26.3,423.6,25,421.2Z" transform="translate(-25 -50.3)"/>
  </g>
</svg>
