<svg id="Layer_1" data-name="Layer 1" xmlns="http://www.w3.org/2000/svg" viewBox="0 0 550 508">
  <defs>
    <style>
      .cls-1 {
        fill: #262223;
      }

      .cls-2 {
        fill: #252223;
      }
    </style>
  </defs>
  <title>settings</title>
  <g>
    <path class="cls-1" d="M209.5,134.4a99.1,99.1,0,0,0-2-16.4c-1.4-6.7-6.2-9.7-13.1-9a57.3,57.3,0,0,1-7.7.8A10.9,10.9,0,0,1,177.8,93c1.3-2,3-3.8,4.4-5.7,4.6-6.2,4.1-12.2-1.8-17.1-3.8-3.2-7.8-6.2-11.8-9.1s-11.4-3.1-16,1.7a43.9,43.9,0,0,0-3.8,4.8c-3.1,4.4-7.3,6.2-12.5,4.8s-7.4-5.3-8.1-10.6c-1.8-14.2-5.7-17.1-19.6-15.3-17.9,2.2-19.3,3.9-18,22a10.1,10.1,0,0,1-4.8,9.9,10.3,10.3,0,0,1-11.5.4c-2.2-1.3-4.1-3.1-6.2-4.6C62.1,69.7,55.9,70.4,51,76c-2.9,3.4-5.6,6.8-8.3,10.3-5.2,6.8-4.6,13,2.2,18.2,5.1,3.9,10.4,7.7,8.2,15.3s-8.8,8-15.1,8.7-8.9,3.1-10.9,8c-.4.9-.3,2.4-2,2v3.3c2.1,0,1.6,1.7,1.7,2.8.5,3.3.8,6.6,1.3,9.9,1.2,8.2,6.6,12.2,14.7,11.2a71,71,0,0,1,7.1-.8,10,10,0,0,1,9.5,5.5,10.4,10.4,0,0,1-.4,11.5c-1.2,1.8-2.7,3.5-4.1,5.2-4.8,6.3-4.2,12.5,1.8,17.5,3.4,2.8,7,5.5,10.5,8.1,6.8,5,13.1,4.3,18.3-2.4,3.8-5,7.5-10.1,14.8-8.1s8.1,8.5,8.9,14.9c1,8.4,6.6,12.6,15,11.6l4.4-.6c17.4-2.1,18.7-3.8,17.4-21.2,0-.2-.1-.4-.1-.5-.1-4.6,1.7-8.3,5.9-10.5a10.5,10.5,0,0,1,11.5.5c2,1.3,3.7,3,5.7,4.4,5.9,4.1,12.1,3.5,16.8-2,3.3-3.9,6.6-8,9.5-12.2s2.9-11.4-2.2-15.8c-1.9-1.7-4.1-3.1-6.1-4.8a10.1,10.1,0,0,1-3.3-11.5c1.3-4.1,4.2-6.9,8.7-7.4,2.4-.3,4.8-.6,7.1-1C206.3,145,209.8,141.1,209.5,134.4Zm-91.3,41a37.9,37.9,0,1,1,38.2-37.7A38,38,0,0,1,118.2,175.3Z" transform="translate(-25 -46)"/>
    <path class="cls-2" d="M553.3,357.8c-3.7-1.2-7.4-2.2-11.1-3.5-11-3.8-17.4-11.4-18.5-23.1s4.6-19.6,14.9-24.9l12.3-6.3c14.9-7.8,19.7-22.9,12-37.9-4.9-9.5-9.9-19-14.9-28.4-8.2-15.5-23.7-20.3-39.3-12.3-4.4,2.3-8.8,4.8-13.3,6.8-10.3,4.7-20,3.3-28.3-4.1s-11.1-15.9-7.1-26.4c1.5-4.1,2.7-8.4,3.9-12.6,5.7-18.8-1.9-33.2-20.6-39.1L416,137.4c-13.3-4.1-26.2,1.1-33.1,13.2-3.7,6.5-5.1,13.7-7.4,20.7-3.4,10.5-10.7,16.1-21.3,17.3s-19.5-3.1-25.1-12.6c-2.8-4.8-5.2-9.8-7.8-14.6-7.4-13.7-22.9-18.8-36.9-12-10.1,4.9-20.2,9.9-30.1,15.2-15.2,8-19.8,23.1-12,38.4,2.8,5.4,6,10.7,8.1,16.3,7,18.4-10,37.4-28,33.6-7.3-1.5-14.1-4.3-21.2-6a27.5,27.5,0,0,0-33.2,18.5c-3.2,10-6.3,20-9.4,30-4.7,15.1,2.6,29.7,17.5,35,5.2,1.8,10.6,3.3,15.8,5.1,10.6,3.6,16.9,10.9,18.1,22.1s-4,20.3-14.5,25.7c-4.1,2.1-8.2,4.1-12.3,6.3-15.1,8.2-19.8,23.3-12,38.5q7.6,14.7,15.5,29.3c7.3,13.6,23.1,18.6,37,11.8,5-2.4,9.8-5.2,14.8-7.6a25.6,25.6,0,0,1,36.8,23.1c0,8-3.7,14.9-5.8,22.3-4.6,16,2.9,31,18.6,36l34.8,11h7.8c13-3,20.7-11.1,23.8-24,.9-3.8,2.2-7.4,3.5-11.1,3.7-10.6,11.3-16.7,22.4-17.7s19.3,3.7,24.7,13.3c2.6,4.7,4.8,9.5,7.4,14.2,7.7,13.8,23.4,18.8,37.5,11.7,10.1-5,20-10.2,30-15.5,14.6-7.8,19.3-22.9,11.8-37.6-2.4-4.8-5.1-9.4-7.5-14.2-4.7-9.4-3.5-19.9,3.6-27.8s15.9-11,26.4-7.6l11.6,3.7c18.4,6.2,31.8-1.7,37.2-15.8,4.2-11,8.2-22.1,10.8-33.5C578,373.9,571.1,363.5,553.3,357.8ZM366.7,433.1a88.3,88.3,0,0,1-88.2-89.4c.4-47.8,40.5-87.6,88.1-87.3,49.2.3,89,39.9,88.8,88.3S415.6,433.3,366.7,433.1Z" transform="translate(-25 -46)"/>
  </g>
</svg>
