<svg id="Layer_1" data-name="Layer 1" xmlns="http://www.w3.org/2000/svg" viewBox="0 0 477.8 550">
  <defs>
    <style>
      .cls-1 {
        fill: #252223;
      }
    </style>
  </defs>
  <title>sms</title>
  <path class="cls-1" d="M538.8,270.1q0-7.8,0-15.6c.4-23-2.1-45.6-10-67.2Q488.5,77.1,378.2,36.6c-20.4-7.5-41.6-9.7-63-11.6h-5.7a38.1,38.1,0,0,1-19,0h-9.5c-11.1,2.3-22.5,1.7-33.6,4.3-51.2,12.2-94.4,37.5-128.8,77.5-36.6,42.5-57.6,91.2-57.3,148q0,10.1,0,20.2a157.3,157.3,0,0,0,1.6,28.4c9.6,58.3,36.5,107.3,82.1,144.8,55.4,45.6,118.9,64.8,190.6,54.3a18.6,18.6,0,0,1,15.8,4.4c12.7,10.5,25.5,20.9,38.6,30.9,16.3,12.5,31,27.1,49.1,37.3h1.9c5.6-3.2,4.5-8.7,4.5-13.6.1-30.8.2-61.5-.1-92.3-.1-8.7,2.9-14.6,9.4-20.4C508.3,401.3,540.9,343.8,538.8,270.1ZM171.6,294.2c-21.2-.2-38.8-17.9-38.6-38.9s18-38.5,39.1-38.4,38.8,18.1,38.5,38.9S192.7,294.3,171.6,294.2Zm128.5-.1a38.6,38.6,0,1,1,38.5-38.6A38.2,38.2,0,0,1,300.1,294.1Zm127.5,0a38.6,38.6,0,0,1-38-39.3c.3-21.1,18.1-38.3,39.4-38s38.4,18.2,38.1,39.3S448.7,294.6,427.6,294.1Z" transform="translate(-61.1 -25)"/>
</svg>
