<svg id="Layer_1" data-name="Layer 1" xmlns="http://www.w3.org/2000/svg" viewBox="0 0 549.9 550">
  <defs>
    <style>
      .cls-1 {
        fill: #262223;
      }
    </style>
  </defs>
  <title>success</title>
  <g>
    <path class="cls-1" d="M404.7,44.2,376.3,72.5c-5.1,5-9.3,12.1-15.5,14.6s-13.6-2.2-20.6-3.6C239.1,64.1,133.9,122,96.1,217.9,49,337.6,111,469.3,233.4,509.3c96.5,31.6,205.2-10.4,256.2-98.7,18.9-32.7,29.1-67.8,30-105.6.1-4.1,1.2-5.4,5.4-5.3q22.5.4,45.1,0c4.1-.1,5,1.1,4.9,5-1.7,66-23.7,124.3-66.8,174.1-50.9,58.7-115.6,90.7-193.1,95.6C200.2,581.7,90.3,512.2,46.2,405.4-19.7,245.7,75,66.3,244.1,30.6c48.1-10.1,95.3-6.1,142,7.8Z" transform="translate(-25.1 -25)"/>
    <path class="cls-1" d="M272.3,409.6l-2.9-2.7q-58.8-58.8-117.7-117.6c-2.5-2.5-2.6-3.8,0-6.3,10.8-10.5,21.5-21.1,31.9-31.9,3.1-3.3,4.8-2.6,7.6.2,25.5,25.7,51.2,51.1,76.5,76.8,4.1,4.2,6,3.5,9.8-.2Q390.7,214.3,504.2,100.8c3.6-3.6,5.4-4.1,9.1-.2,10.1,10.7,20.6,20.9,31.1,31.2,2.5,2.5,2.5,3.9,0,6.4L275.6,406.8C274.6,407.8,273.5,408.6,272.3,409.6Z" transform="translate(-25.1 -25)"/>
  </g>
</svg>
