<svg id="Layer_1" data-name="Layer 1" xmlns="http://www.w3.org/2000/svg" viewBox="0 0 504.2 550">
  <title>trash</title>
  <g>
    <path d="M549.1,120.1a11.2,11.2,0,0,0-8.2-3.2H430.2L405.2,57.1q-5.4-13.3-19.3-22.6t-28.3-9.3H243q-14.3,0-28.3,9.3T195.3,57.1l-25.1,59.8H59.6a11,11,0,0,0-11.5,11.5v22.9a11,11,0,0,0,11.5,11.5H94V503.6q0,29.7,16.8,50.7t40.5,20.9H449.2q23.6,0,40.5-21.7t16.8-51.4V162.8h34.4a11,11,0,0,0,11.5-11.5V128.4A11.2,11.2,0,0,0,549.1,120.1ZM237.6,75a10.1,10.1,0,0,1,6.1-3.9H357.2a10.1,10.1,0,0,1,6.1,3.9l17.2,41.9H220.1ZM460.7,502.2a40.6,40.6,0,0,1-2.5,14.5q-2.5,6.6-5.2,9.7c-1.8,2-3,3-3.8,3H151.3c-.7,0-2-1-3.8-3s-3.5-5.3-5.2-9.7a40.7,40.7,0,0,1-2.5-14.5V162.8H460.7V502.2Z" transform="translate(-48.2 -25.3)"/>
    <path d="M197.1,460.7h22.9a11,11,0,0,0,11.5-11.5V243a11,11,0,0,0-11.5-11.5H197.1A11,11,0,0,0,185.7,243V449.2a11,11,0,0,0,11.5,11.5Z" transform="translate(-48.2 -25.3)"/>
    <path d="M288.8,460.7h22.9a11,11,0,0,0,11.5-11.5V243a11,11,0,0,0-11.5-11.5H288.8A11,11,0,0,0,277.3,243V449.2a11,11,0,0,0,11.5,11.5Z" transform="translate(-48.2 -25.3)"/>
    <path d="M380.5,460.7h22.9a11,11,0,0,0,11.5-11.5V243a11,11,0,0,0-11.5-11.5H380.5A11,11,0,0,0,369,243V449.2a11,11,0,0,0,11.5,11.5Z" transform="translate(-48.2 -25.3)"/>
  </g>
</svg>
